<svg xmlns="http://www.w3.org/2000/svg" fill="none" viewBox="0 0 24 24" height="24" width="24">
<g clip-path="url(#clip0_448_6227)">
<path fill="#503629" d="M21.208 19.757C21.5317 19.6963 21.7542 19.3929 21.7137 19.0692C21.653 18.7456 21.3496 18.5231 21.026 18.5636C14.2903 19.6761 7.45356 19.6558 0.717912 18.5029C0.394277 18.4422 0.0706426 18.6647 0.00996115 19.0086C-0.0507203 19.3322 0.171778 19.6558 0.51564 19.7165C4.01494 20.3031 7.51424 20.6065 11.0338 20.6065C14.4319 20.5863 17.8301 20.3031 21.208 19.757Z"></path>
<path fill="#503629" d="M19.4281 4H3.16549C2.98345 4 2.82163 4.08091 2.70027 4.2225C2.57891 4.36409 2.53845 4.54613 2.55868 4.70795L4.31844 15.3879C4.52071 16.5813 5.49162 17.4915 6.70525 17.5724C8.20206 17.6938 9.73932 17.7342 11.2361 17.7342C12.7734 17.7342 14.3107 17.6736 15.8277 17.5522C17.0413 17.4511 18.0122 16.5611 18.2145 15.3677L18.5584 13.2843H19.3472C19.7518 13.2843 20.1563 13.2236 20.5609 13.1224C22.5836 12.5763 23.9995 10.7356 23.9995 8.63202C24.0399 6.10363 21.9768 4.02023 19.4281 4ZM17.0413 15.1856C16.9402 15.8329 16.4143 16.3183 15.767 16.3588C12.8138 16.5813 9.77977 16.5813 6.82661 16.3588C6.17934 16.3183 5.65343 15.8329 5.5523 15.1856L3.89367 5.21363H18.7L17.0413 15.1856ZM20.2777 11.9695C19.9945 12.0504 19.6911 12.0909 19.3877 12.0909H18.8011L19.9338 5.25408C21.5722 5.51704 22.8263 6.93294 22.8263 8.65225C22.8263 10.2097 21.7745 11.565 20.2777 11.9695Z"></path>
</g>
<defs>
<clipPath id="clip0_448_6227">
<rect fill="white" height="24" width="24"></rect>
</clipPath>
</defs>
</svg>
