<svg xmlns="http://www.w3.org/2000/svg" fill="none" viewBox="0 0 184 184" height="184" width="184">
<path fill="#59200A" d="M91.6 0L0 91.6L91.6 183.1L183.2 91.5L91.7 0H91.6ZM93.1 170.8L91.9 172L90.7 170.8L12.7 92.8L11.5 91.6L12.7 90.4L90.7 12.4L91.9 11.2L93.1 12.4L171.1 90.4L172.3 91.6L171.1 92.8L93.1 170.8Z"></path>
<path fill="#59200A" d="M60.8993 74.1C61.6993 81.6 62.7992 92.1 63.5992 96.7C62.6992 96.7 61.8992 96.5 61.0992 96.5C60.2992 96.5 59.3993 96.5 58.4993 96.7C58.2993 92.2 57.7992 86.6 57.2992 81.5C54.9992 86.6 52.6993 91.6 50.3993 96.7C50.1993 96.7 49.9992 96.7 49.7992 96.7C49.5992 96.7 49.3992 96.7 49.1992 96.7C46.9992 91.8 44.6993 86.8 42.3993 81.8C41.6993 86.8 41.4992 91.7 41.1992 96.7C40.6992 96.7 40.1992 96.5 39.6992 96.5C39.1992 96.5 38.6992 96.5 38.1992 96.7C39.4992 89.2 40.4993 81.6 41.3993 74.1C41.7993 74.1 42.1992 74.2 42.6992 74.2C43.1992 74.2 43.5993 74.2 43.8993 74C46.1993 79.2 48.7992 85 51.0992 89.7C53.5992 84.8 56.0993 79.2 58.3993 74C58.7993 74 59.2992 74.2 59.6992 74.2C60.0992 74.2 60.5993 74.2 60.9993 74L60.8993 74.1Z"></path>
<path fill="#59200A" d="M67.6008 87.6V83.1C67.6008 79.4 67.6008 76.9 67.3008 74C68.0008 74 68.8009 74.1 69.9009 74.1C71.0009 74.1 71.8009 74 72.4009 73.9C72.2009 76.8 72.1008 79.3 72.1008 83V87.5C72.1008 91.2 72.1009 93.7 72.4009 96.6C71.7009 96.6 70.9009 96.4 69.9009 96.4C68.9009 96.4 68.0008 96.4 67.3008 96.6C67.5008 93.7 67.6008 91.2 67.6008 87.5V87.6Z"></path>
<path fill="#59200A" d="M68.8008 56.8C68.8008 52.3 71.7009 50.6 74.9009 50.6C78.1009 50.6 77.3008 50.9 78.1008 51.4C77.9008 51.9 77.8008 52.5 77.7008 53.1H77.5009C76.7009 52.1 75.9008 51.6 74.8008 51.6C73.1008 51.6 71.3008 53.1 71.3008 56.6C71.3008 60.1 73.2009 61.3 75.0009 61.3C76.8009 61.3 77.1008 60.8 77.8008 60.1H78.0009C77.8009 60.7 77.7008 61.2 77.7008 61.6C76.9008 62.1 75.8009 62.3 74.5009 62.3C70.9009 62.3 68.8008 59.9 68.8008 56.8Z"></path>
<path fill="#59200A" d="M79.2003 61.9C79.0003 61.9 78.7004 61.9 78.4004 61.9C79.2004 60.1 81.5003 54.3 82.8003 50.6C83.0003 50.6 83.2004 50.6 83.4004 50.6C83.6004 50.6 83.8004 50.6 84.0004 50.6C85.3004 54.3 87.1003 59.3 88.3003 61.9C87.8003 61.9 87.4004 61.9 86.9004 61.9C86.4004 61.9 86.0003 61.9 85.6003 61.9C85.3003 60.8 84.9004 59.7 84.5004 58.6C83.8004 58.6 83.2004 58.6 82.5004 58.6C81.8004 58.6 81.4004 58.6 80.9004 58.6C80.5004 59.7 80.1003 60.8 79.8003 61.9C79.6003 61.9 79.3003 61.9 79.1003 61.9H79.2003Z"></path>
<path fill="#59200A" d="M77.5004 74.1C78.2004 74.1 79.0003 74.3 80.1003 74.3C81.2003 74.3 82.0003 74.2 82.6003 74.1C82.4003 77 82.4004 79.5 82.4004 83.2V87.7C82.4004 90.1 82.4004 92.6 82.4004 94.3C84.7004 94.3 87.1004 94.2 89.5004 93.9C89.5004 94.4 89.4004 94.7 89.4004 95.4C89.4004 96.1 89.4004 96.4 89.5004 96.8C88.4004 96.8 86.9004 96.6 84.0004 96.6C78.9004 96.6 78.1004 96.6 77.4004 96.8C77.6004 93.9 77.6003 91.4 77.6003 87.7V83.2C77.6003 79.5 77.6004 77 77.4004 74.1H77.5004Z"></path>
<path fill="#59200A" d="M89.7992 57.5V55.3C89.7992 53.5 89.7992 52.2 89.6992 50.8C90.5992 50.8 91.5993 50.8 92.4993 50.8C93.9993 50.8 95.2992 50.8 95.6992 50.8C95.6992 51 95.6992 51.2 95.6992 51.5C95.6992 51.8 95.6992 52 95.6992 52.2C94.4992 52.2 92.6992 52 92.1992 52C92.1992 53.2 92.1992 54.4001 92.1992 55.6001C93.4992 55.6001 94.4992 55.6 95.6992 55.5C95.6992 55.9 95.6992 56 95.6992 56.2C95.6992 56.4 95.6992 56.5 95.6992 56.9C94.4992 56.9 93.3992 56.8 92.1992 56.8V57.6001C92.1992 59.4001 92.1992 60.7001 92.2992 62.1001C91.9992 62.1001 91.4993 62.1001 90.9993 62.1001C90.4993 62.1001 90.0992 62.1001 89.6992 62.1001C89.7992 60.7001 89.7992 59.4001 89.7992 57.6001V57.5Z"></path>
<path fill="#59200A" d="M97.6 55.2C97.6 53.4 97.6 52.1 97.5 50.7C98.4 50.7 99.2999 50.7 100.3 50.7C101.8 50.7 103.1 50.7 103.5 50.7C103.5 50.9 103.5 51.0999 103.5 51.3999C103.5 51.6999 103.5 51.9 103.5 52.1C102.3 52.1 100.5 51.8999 100 51.8999C100 53.0999 100 54.3 100 55.5C101.4 55.5 102.3 55.4999 103.5 55.3999C103.5 55.7999 103.5 55.9 103.5 56.1C103.5 56.3 103.5 56.4 103.5 56.8C102.3 56.8 101.2 56.7 100 56.7V57.5C100 59.3 100 60.6 100.1 62C99.8 62 99.2999 62 98.7999 62C98.2999 62 97.9 62 97.6 62C97.6 60.6 97.7 59.3 97.7 57.5V55.3L97.6 55.2Z"></path>
<path fill="#59200A" d="M102.3 74C104.9 81.5 108.6 91.4 110.9 96.8C109.9 96.8 109 96.7 108.2 96.7C107.4 96.7 106.4 96.7 105.5 96.9C104.8 94.7 104.1 92.4 103.4 90.2C102.1 90.2 100.8 90.2 99.4 90.2C98 90.2 97.2 90.2 96.2 90.2C95.4 92.4 94.7 94.7 94.1 96.9C93.6 96.9 93.1 96.8 92.6 96.8C92.1 96.8 91.6 96.8 91 97C92.5 93.4 97.2 81.7 99.9 74.2C100.3 74.2 100.7 74.4 101.1 74.4C101.5 74.4 101.9 74.4 102.3 74.2V74Z"></path>
<path fill="#59200A" d="M107.9 50.1H107.1C109.4 47.1 109.6 47 110 47C110.4 47 110.7 47.4 110.7 47.7C110.7 48.2 110.6 48.3 107.9 50V50.1Z"></path>
<path fill="#59200A" d="M105.299 57.5V55.3C105.299 53.5 105.299 52.2 105.199 50.8C106.099 50.8 107.099 50.8 107.999 50.8C109.499 50.8 110.799 50.8 111.199 50.8C111.199 51 111.199 51.2 111.199 51.5C111.199 51.8 111.199 52 111.199 52.2C109.999 52.2 108.199 52 107.699 52C107.699 53.2 107.699 54.4001 107.699 55.6001C108.999 55.6001 109.999 55.6 111.199 55.5C111.199 55.9 111.199 56 111.199 56.2C111.199 56.4 111.199 56.5 111.199 56.9C109.999 56.9 108.899 56.8 107.699 56.8V58.9C107.699 59.6 107.699 60.3 107.699 60.9C108.899 60.9 110.099 60.9 111.299 60.7C111.299 60.9 111.299 61.1 111.299 61.4C111.299 61.7 111.299 61.9001 111.299 62.1001C110.699 62.1001 109.999 62.1001 108.599 62.1001C106.099 62.1001 105.699 62.1001 105.299 62.1001C105.399 60.7001 105.399 59.4001 105.399 57.6001L105.299 57.5Z"></path>
<path fill="#59200A" d="M114.099 116.8C109.699 121.1 111.099 124.2 111.099 124.2C111.999 126.2 111.399 132.2 111.399 132.2C110.999 141.9 103.599 142.4 103.599 142.4C102.099 141.9 100.799 143.2 100.799 143.2C98.0993 145.6 99.5993 146.9 99.5993 146.9C101.499 147.7 100.399 148.9 100.399 148.9C94.2994 156.1 85.5993 151.4 85.5993 151.4C81.3993 149.1 83.7993 147.1 83.7993 147.1C86.0993 146.2 84.6993 145.6 84.6993 145.6C83.4993 142.4 79.7993 140.7 79.7993 140.7C78.6993 143 77.1993 142 77.1993 142C75.5993 140.1 77.5993 139.7 77.5993 139.7C78.8993 138.7 76.7993 137.8 76.7993 137.8C68.6993 133.6 69.0993 128.7 69.0993 128.7C68.1993 119.6 75.3994 119.8 75.3994 119.8C81.0994 118.7 82.6993 124.7 82.6993 124.7C84.1993 124.3 85.1993 123.4 85.1993 123.4C88.5993 121.5 83.7993 120.9 83.7993 120.9C79.6993 119.6 83.3994 117.7 83.3994 117.7C81.2994 115.5 88.1993 114.6 88.1993 114.6C90.1993 114.4 88.8994 112.9 88.8994 112.9C82.5994 110.9 89.7993 109.3 89.7993 109.3C88.2993 105.9 91.4994 105.9 91.4994 105.9L92.4994 106.1C93.9994 106.5 93.0993 109.2 93.0993 109.2L93.4994 109.5C93.6994 109.7 95.0993 110 95.0993 110C98.2993 111.4 94.6993 112.4 94.6993 112.4C91.5993 114.3 95.0993 114.7 95.0993 114.7C100.699 114.9 99.7993 117.6 99.7993 117.6C102.699 119.8 98.4994 120.7 98.4994 120.7C95.2994 122.3 98.3994 123.2 98.3994 123.2C103.299 124.6 105.099 128.5 105.099 128.5C108.399 127.8 107.799 123.2 107.799 123.2C107.399 117.8 112.799 115.7 112.799 115.7L114.299 116.6L114.099 116.8Z"></path>
<path fill="#59200A" d="M131.701 74.2C132.201 74.2 132.601 74.2 133.101 74.1C132.601 83.6 132.601 88 132.601 96.7C132.201 96.7 131.801 96.5 131.301 96.5C130.901 96.5 130.501 96.5 130.101 96.7C125.801 91.4 121.301 86.1 116.501 80.8C116.501 83.3 116.501 86 116.501 88.4C116.501 93.6 116.601 95.5 116.701 96.7C116.201 96.7 115.701 96.5 115.201 96.5C114.701 96.5 114.201 96.5 113.801 96.7C113.901 95.8 114.401 87.3 114.401 80.6C114.401 73.9 114.301 75.6 114.201 74.1C114.701 74.1 115.101 74.2 115.601 74.2C116.101 74.2 116.501 74.2 117.001 74C121.501 79.2 125.901 84.4 130.501 89.6C130.501 84.4 130.501 75.5 130.301 74C130.801 74 131.201 74.2 131.701 74.2Z"></path>
<path fill="#59200A" d="M138.899 87.8V83.4001C138.899 79.7001 138.899 77.2 138.699 74.3C139.399 74.3 140.199 74.5001 141.299 74.5001C142.399 74.5001 143.199 74.5 143.799 74.3C143.599 77.2 143.599 79.7001 143.599 83.4001V87.8C143.599 91.5 143.599 94.0001 143.799 96.9001C143.099 96.9001 142.299 96.7001 141.299 96.7001C140.299 96.7001 139.399 96.7001 138.699 96.9001C138.899 94.0001 138.999 91.5 138.999 87.8H138.899Z"></path>
<path fill="white" d="M60.8993 74.1C61.6993 81.6 62.7992 92.1 63.5992 96.7C62.6992 96.7 61.8992 96.5 61.0992 96.5C60.2992 96.5 59.3993 96.5 58.4993 96.7C58.2993 92.2 57.7992 86.6 57.2992 81.5C54.9992 86.6 52.6993 91.6 50.3993 96.7C50.1993 96.7 49.9992 96.7 49.7992 96.7C49.5992 96.7 49.3992 96.7 49.1992 96.7C46.9992 91.8 44.6993 86.8 42.3993 81.8C41.6993 86.8 41.4992 91.7 41.1992 96.7C40.6992 96.7 40.1992 96.5 39.6992 96.5C39.1992 96.5 38.6992 96.5 38.1992 96.7C39.4992 89.2 40.4993 81.6 41.3993 74.1C41.7993 74.1 42.1992 74.2 42.6992 74.2C43.1992 74.2 43.5993 74.2 43.8993 74C46.1993 79.2 48.7992 85 51.0992 89.7C53.5992 84.8 56.0993 79.2 58.3993 74C58.7993 74 59.2992 74.2 59.6992 74.2C60.0992 74.2 60.5993 74.2 60.9993 74L60.8993 74.1Z"></path>
<path fill="white" d="M67.6008 87.6V83.1C67.6008 79.4 67.6008 76.9 67.3008 74C68.0008 74 68.8009 74.1 69.9009 74.1C71.0009 74.1 71.8009 74 72.4009 73.9C72.2009 76.8 72.1008 79.3 72.1008 83V87.5C72.1008 91.2 72.1009 93.7 72.4009 96.6C71.7009 96.6 70.9009 96.4 69.9009 96.4C68.9009 96.4 68.0008 96.4 67.3008 96.6C67.5008 93.7 67.6008 91.2 67.6008 87.5V87.6Z"></path>
<path fill="white" d="M68.8008 56.8C68.8008 52.3 71.7009 50.6 74.9009 50.6C78.1009 50.6 77.3008 50.9 78.1008 51.4C77.9008 51.9 77.8008 52.5 77.7008 53.1H77.5009C76.7009 52.1 75.9008 51.6 74.8008 51.6C73.1008 51.6 71.3008 53.1 71.3008 56.6C71.3008 60.1 73.2009 61.3 75.0009 61.3C76.8009 61.3 77.1008 60.8 77.8008 60.1H78.0009C77.8009 60.7 77.7008 61.2 77.7008 61.6C76.9008 62.1 75.8009 62.3 74.5009 62.3C70.9009 62.3 68.8008 59.9 68.8008 56.8Z"></path>
<path fill="white" d="M79.2003 61.9C79.0003 61.9 78.7004 61.9 78.4004 61.9C79.2004 60.1 81.5003 54.3 82.8003 50.6C83.0003 50.6 83.2004 50.6 83.4004 50.6C83.6004 50.6 83.8004 50.6 84.0004 50.6C85.3004 54.3 87.1003 59.3 88.3003 61.9C87.8003 61.9 87.4004 61.9 86.9004 61.9C86.4004 61.9 86.0003 61.9 85.6003 61.9C85.3003 60.8 84.9004 59.7 84.5004 58.6C83.8004 58.6 83.2004 58.6 82.5004 58.6C81.8004 58.6 81.4004 58.6 80.9004 58.6C80.5004 59.7 80.1003 60.8 79.8003 61.9C79.6003 61.9 79.3003 61.9 79.1003 61.9H79.2003Z"></path>
<path fill="white" d="M89.6 93.8C89.6 94.3 89.5 94.6 89.5 95.3C89.5 96 89.5 96.3 89.6 96.7C88.5 96.7 87 96.5 84.1 96.5C79 96.5 78.2 96.5 77.5 96.7C77.7 93.8 77.7 91.3 77.7 87.6V83.1C77.7 79.4 77.7 76.9 77.5 74C78.2 74 79 74.2 80.1 74.2C81.2 74.2 82 74.1 82.6 74C82.4 76.9 82.4 79.4 82.4 83.1V87.6C82.4 90 82.4 92.5 82.4 94.2C84.7 94.2 87.1 94.1 89.5 93.8H89.6Z"></path>
<path fill="white" d="M89.7992 57.5V55.3C89.7992 53.5 89.7992 52.2 89.6992 50.8C90.5992 50.8 91.5993 50.8 92.4993 50.8C93.9993 50.8 95.2992 50.8 95.6992 50.8C95.6992 51 95.6992 51.2 95.6992 51.5C95.6992 51.8 95.6992 52 95.6992 52.2C94.4992 52.2 92.6992 52 92.1992 52C92.1992 53.2 92.1992 54.4001 92.1992 55.6001C93.4992 55.6001 94.4992 55.6 95.6992 55.5C95.6992 55.9 95.6992 56 95.6992 56.2C95.6992 56.4 95.6992 56.5 95.6992 56.9C94.4992 56.9 93.3992 56.8 92.1992 56.8V57.6001C92.1992 59.4001 92.1992 60.7001 92.2992 62.1001C91.9992 62.1001 91.4993 62.1001 90.9993 62.1001C90.4993 62.1001 90.0992 62.1001 89.6992 62.1001C89.7992 60.7001 89.7992 59.4001 89.7992 57.6001V57.5Z"></path>
<path fill="white" d="M97.6 55.2C97.6 53.4 97.6 52.1 97.5 50.7C98.4 50.7 99.2999 50.7 100.3 50.7C101.8 50.7 103.1 50.7 103.5 50.7C103.5 50.9 103.5 51.0999 103.5 51.3999C103.5 51.6999 103.5 51.9 103.5 52.1C102.3 52.1 100.5 51.8999 100 51.8999C100 53.0999 100 54.3 100 55.5C101.4 55.5 102.3 55.4999 103.5 55.3999C103.5 55.7999 103.5 55.9 103.5 56.1C103.5 56.3 103.5 56.4 103.5 56.8C102.3 56.8 101.2 56.7 100 56.7V57.5C100 59.3 100 60.6 100.1 62C99.8 62 99.2999 62 98.7999 62C98.2999 62 97.9 62 97.6 62C97.6 60.6 97.7 59.3 97.7 57.5V55.3L97.6 55.2Z"></path>
<path fill="white" d="M102.3 74C104.9 81.5 108.6 91.4 110.9 96.8C109.9 96.8 109 96.7 108.2 96.7C107.4 96.7 106.4 96.7 105.5 96.9C104.8 94.7 104.1 92.4 103.4 90.2C102.1 90.2 100.8 90.2 99.4 90.2C98 90.2 97.2 90.2 96.2 90.2C95.4 92.4 94.7 94.7 94.1 96.9C93.6 96.9 93.1 96.8 92.6 96.8C92.1 96.8 91.6 96.8 91 97C92.5 93.4 97.2 81.7 99.9 74.2C100.3 74.2 100.7 74.4 101.1 74.4C101.5 74.4 101.9 74.4 102.3 74.2V74Z"></path>
<path fill="white" d="M107.9 50.1H107.1C109.4 47.1 109.6 47 110 47C110.4 47 110.7 47.4 110.7 47.7C110.7 48.2 110.6 48.3 107.9 50V50.1Z"></path>
<path fill="white" d="M105.299 57.5V55.3C105.299 53.5 105.299 52.2 105.199 50.8C106.099 50.8 107.099 50.8 107.999 50.8C109.499 50.8 110.799 50.8 111.199 50.8C111.199 51 111.199 51.2 111.199 51.5C111.199 51.8 111.199 52 111.199 52.2C109.999 52.2 108.199 52 107.699 52C107.699 53.2 107.699 54.4001 107.699 55.6001C108.999 55.6001 109.999 55.6 111.199 55.5C111.199 55.9 111.199 56 111.199 56.2C111.199 56.4 111.199 56.5 111.199 56.9C109.999 56.9 108.899 56.8 107.699 56.8V58.9C107.699 59.6 107.699 60.3 107.699 60.9C108.899 60.9 110.099 60.9 111.299 60.7C111.299 60.9 111.299 61.1 111.299 61.4C111.299 61.7 111.299 61.9001 111.299 62.1001C110.699 62.1001 109.999 62.1001 108.599 62.1001C106.099 62.1001 105.699 62.1001 105.299 62.1001C105.399 60.7001 105.399 59.4001 105.399 57.6001L105.299 57.5Z"></path>
<path fill="white" d="M114.099 116.8C109.699 121.1 111.099 124.2 111.099 124.2C111.999 126.2 111.399 132.2 111.399 132.2C110.999 141.9 103.599 142.4 103.599 142.4C102.099 141.9 100.799 143.2 100.799 143.2C98.0993 145.6 99.5993 146.9 99.5993 146.9C101.499 147.7 100.399 148.9 100.399 148.9C94.2994 156.1 85.5993 151.4 85.5993 151.4C81.3993 149.1 83.7993 147.1 83.7993 147.1C86.0993 146.2 84.6993 145.6 84.6993 145.6C83.4993 142.4 79.7993 140.7 79.7993 140.7C78.6993 143 77.1993 142 77.1993 142C75.5993 140.1 77.5993 139.7 77.5993 139.7C78.8993 138.7 76.7993 137.8 76.7993 137.8C68.6993 133.6 69.0993 128.7 69.0993 128.7C68.1993 119.6 75.3994 119.8 75.3994 119.8C81.0994 118.7 82.6993 124.7 82.6993 124.7C84.1993 124.3 85.1993 123.4 85.1993 123.4C88.5993 121.5 83.7993 120.9 83.7993 120.9C79.6993 119.6 83.3994 117.7 83.3994 117.7C81.2994 115.5 88.1993 114.6 88.1993 114.6C90.1993 114.4 88.8994 112.9 88.8994 112.9C82.5994 110.9 89.7993 109.3 89.7993 109.3C88.2993 105.9 91.4994 105.9 91.4994 105.9L92.4994 106.1C93.9994 106.5 93.0993 109.2 93.0993 109.2L93.4994 109.5C93.6994 109.7 95.0993 110 95.0993 110C98.2993 111.4 94.6993 112.4 94.6993 112.4C91.5993 114.3 95.0993 114.7 95.0993 114.7C100.699 114.9 99.7993 117.6 99.7993 117.6C102.699 119.8 98.4994 120.7 98.4994 120.7C95.2994 122.3 98.3994 123.2 98.3994 123.2C103.299 124.6 105.099 128.5 105.099 128.5C108.399 127.8 107.799 123.2 107.799 123.2C107.399 117.8 112.799 115.7 112.799 115.7L114.299 116.6L114.099 116.8Z"></path>
<path fill="white" d="M131.701 74.2C132.201 74.2 132.601 74.2 133.101 74.1C132.601 83.6 132.601 88 132.601 96.7C132.201 96.7 131.801 96.5 131.301 96.5C130.901 96.5 130.501 96.5 130.101 96.7C125.801 91.4 121.301 86.1 116.501 80.8C116.501 83.3 116.501 86 116.501 88.4C116.501 93.6 116.601 95.5 116.701 96.7C116.201 96.7 115.701 96.5 115.201 96.5C114.701 96.5 114.201 96.5 113.801 96.7C113.901 95.8 114.401 87.3 114.401 80.6C114.401 73.9 114.301 75.6 114.201 74.1C114.701 74.1 115.101 74.2 115.601 74.2C116.101 74.2 116.501 74.2 117.001 74C121.501 79.2 125.901 84.4 130.501 89.6C130.501 84.4 130.501 75.5 130.301 74C130.801 74 131.201 74.2 131.701 74.2Z"></path>
<path fill="white" d="M143.5 87.8C143.5 91.5 143.5 94.0001 143.7 96.9001C143 96.9001 142.2 96.7001 141.2 96.7001C140.2 96.7001 139.3 96.7001 138.6 96.9001C138.8 94.0001 138.9 91.5 138.9 87.8V83.4001C138.9 79.7001 138.9 77.2 138.7 74.3C139.4 74.3 140.2 74.5001 141.3 74.5001C142.4 74.5001 143.2 74.5 143.8 74.3C143.6 77.2 143.6 79.7001 143.6 83.4001V87.8H143.5Z"></path>
<path fill="#59200A" d="M79.4 124.9L79.6999 124.1C79.6999 124.1 77.3 119.9 72.9 123.7C72.9 123.7 68.8999 128.4 73.9999 133.9C73.9999 133.9 75.5999 135.8 77.4999 136.3C77.4999 136.3 76.4999 131.6 78.7999 128.7C78.7999 128.7 75.8 125.1 79.4 124.9ZM82.9 53.8C82.4 55.1 81.9 56.4 81.4 57.7H84.1999C83.6999 56.4 83.2999 55.1 82.7999 53.8H82.9ZM99.9 80.3C98.8 82.9 97.8999 85.5001 96.9999 88.1001H102.7C101.8 85.4001 100.9 82.9 99.9 80.3ZM99.9 80.3C98.8 82.9 97.8999 85.5001 96.9999 88.1001H102.7C101.8 85.4001 100.9 82.9 99.9 80.3ZM79.4 124.9L79.6999 124.1C79.6999 124.1 77.3 119.9 72.9 123.7C72.9 123.7 68.8999 128.4 73.9999 133.9C73.9999 133.9 75.5999 135.8 77.4999 136.3C77.4999 136.3 76.4999 131.6 78.7999 128.7C78.7999 128.7 75.8 125.1 79.4 124.9ZM82.9 53.8C82.4 55.1 81.9 56.4 81.4 57.7H84.1999C83.6999 56.4 83.2999 55.1 82.7999 53.8H82.9ZM79.4 124.9L79.6999 124.1C79.6999 124.1 77.3 119.9 72.9 123.7C72.9 123.7 68.8999 128.4 73.9999 133.9C73.9999 133.9 75.5999 135.8 77.4999 136.3C77.4999 136.3 76.4999 131.6 78.7999 128.7C78.7999 128.7 75.8 125.1 79.4 124.9ZM82.9 53.8C82.4 55.1 81.9 56.4 81.4 57.7H84.1999C83.6999 56.4 83.2999 55.1 82.7999 53.8H82.9ZM99.9 80.3C98.8 82.9 97.8999 85.5001 96.9999 88.1001H102.7C101.8 85.4001 100.9 82.9 99.9 80.3ZM99.9 80.3C98.8 82.9 97.8999 85.5001 96.9999 88.1001H102.7C101.8 85.4001 100.9 82.9 99.9 80.3ZM82.9 53.8C82.4 55.1 81.9 56.4 81.4 57.7H84.1999C83.6999 56.4 83.2999 55.1 82.7999 53.8H82.9ZM79.4 124.9L79.6999 124.1C79.6999 124.1 77.3 119.9 72.9 123.7C72.9 123.7 68.8999 128.4 73.9999 133.9C73.9999 133.9 75.5999 135.8 77.4999 136.3C77.4999 136.3 76.4999 131.6 78.7999 128.7C78.7999 128.7 75.8 125.1 79.4 124.9ZM99.9 80.3C98.8 82.9 97.8999 85.5001 96.9999 88.1001H102.7C101.8 85.4001 100.9 82.9 99.9 80.3ZM82.9 53.8C82.4 55.1 81.9 56.4 81.4 57.7H84.1999C83.6999 56.4 83.2999 55.1 82.7999 53.8H82.9ZM79.4 124.9L79.6999 124.1C79.6999 124.1 77.3 119.9 72.9 123.7C72.9 123.7 68.8999 128.4 73.9999 133.9C73.9999 133.9 75.5999 135.8 77.4999 136.3C77.4999 136.3 76.4999 131.6 78.7999 128.7C78.7999 128.7 75.8 125.1 79.4 124.9ZM79.4 124.9L79.6999 124.1C79.6999 124.1 77.3 119.9 72.9 123.7C72.9 123.7 68.8999 128.4 73.9999 133.9C73.9999 133.9 75.5999 135.8 77.4999 136.3C77.4999 136.3 76.4999 131.6 78.7999 128.7C78.7999 128.7 75.8 125.1 79.4 124.9ZM82.9 53.8C82.4 55.1 81.9 56.4 81.4 57.7H84.1999C83.6999 56.4 83.2999 55.1 82.7999 53.8H82.9ZM99.9 80.3C98.8 82.9 97.8999 85.5001 96.9999 88.1001H102.7C101.8 85.4001 100.9 82.9 99.9 80.3ZM99.9 80.3C98.8 82.9 97.8999 85.5001 96.9999 88.1001H102.7C101.8 85.4001 100.9 82.9 99.9 80.3ZM82.9 53.8C82.4 55.1 81.9 56.4 81.4 57.7H84.1999C83.6999 56.4 83.2999 55.1 82.7999 53.8H82.9ZM79.4 124.9L79.6999 124.1C79.6999 124.1 77.3 119.9 72.9 123.7C72.9 123.7 68.8999 128.4 73.9999 133.9C73.9999 133.9 75.5999 135.8 77.4999 136.3C77.4999 136.3 76.4999 131.6 78.7999 128.7C78.7999 128.7 75.8 125.1 79.4 124.9ZM99.9 80.3C98.8 82.9 97.8999 85.5001 96.9999 88.1001H102.7C101.8 85.4001 100.9 82.9 99.9 80.3ZM82.9 53.8C82.4 55.1 81.9 56.4 81.4 57.7H84.1999C83.6999 56.4 83.2999 55.1 82.7999 53.8H82.9ZM79.4 124.9L79.6999 124.1C79.6999 124.1 77.3 119.9 72.9 123.7C72.9 123.7 68.8999 128.4 73.9999 133.9C73.9999 133.9 75.5999 135.8 77.4999 136.3C77.4999 136.3 76.4999 131.6 78.7999 128.7C78.7999 128.7 75.8 125.1 79.4 124.9ZM79.4 124.9L79.6999 124.1C79.6999 124.1 77.3 119.9 72.9 123.7C72.9 123.7 68.8999 128.4 73.9999 133.9C73.9999 133.9 75.5999 135.8 77.4999 136.3C77.4999 136.3 76.4999 131.6 78.7999 128.7C78.7999 128.7 75.8 125.1 79.4 124.9ZM82.9 53.8C82.4 55.1 81.9 56.4 81.4 57.7H84.1999C83.6999 56.4 83.2999 55.1 82.7999 53.8H82.9ZM99.9 80.3C98.8 82.9 97.8999 85.5001 96.9999 88.1001H102.7C101.8 85.4001 100.9 82.9 99.9 80.3ZM99.9 80.3C98.8 82.9 97.8999 85.5001 96.9999 88.1001H102.7C101.8 85.4001 100.9 82.9 99.9 80.3ZM81.4 57.7H84.1999C83.6999 56.4 83.2999 55.1 82.7999 53.8C82.2999 55.1 81.7999 56.4 81.2999 57.7H81.4ZM72.9 123.7C72.9 123.7 68.8999 128.4 73.9999 133.9C73.9999 133.9 75.5999 135.8 77.4999 136.3C77.4999 136.3 76.4999 131.6 78.7999 128.7C78.7999 128.7 75.8 125.1 79.4 124.9L79.6999 124.1C79.6999 124.1 77.3 119.9 72.9 123.7ZM99.9 80.3C98.8 82.9 97.8999 85.5001 96.9999 88.1001H102.7C101.8 85.4001 100.9 82.9 99.9 80.3ZM81.4 57.7H84.1999C83.6999 56.4 83.2999 55.1 82.7999 53.8C82.2999 55.1 81.7999 56.4 81.2999 57.7H81.4ZM72.9 123.7C72.9 123.7 68.8999 128.4 73.9999 133.9C73.9999 133.9 75.5999 135.8 77.4999 136.3C77.4999 136.3 76.4999 131.6 78.7999 128.7C78.7999 128.7 75.8 125.1 79.4 124.9L79.6999 124.1C79.6999 124.1 77.3 119.9 72.9 123.7ZM79.4 124.9L79.6999 124.1C79.6999 124.1 77.3 119.9 72.9 123.7C72.9 123.7 68.8999 128.4 73.9999 133.9C73.9999 133.9 75.5999 135.8 77.4999 136.3C77.4999 136.3 76.4999 131.6 78.7999 128.7C78.7999 128.7 75.8 125.1 79.4 124.9ZM82.9 53.8C82.4 55.1 81.9 56.4 81.4 57.7H84.1999C83.6999 56.4 83.2999 55.1 82.7999 53.8H82.9ZM99.9 80.3C98.8 82.9 97.8999 85.5001 96.9999 88.1001H102.7C101.8 85.4001 100.9 82.9 99.9 80.3ZM79.4 124.9L79.6999 124.1C79.6999 124.1 77.3 119.9 72.9 123.7C72.9 123.7 68.8999 128.4 73.9999 133.9C73.9999 133.9 75.5999 135.8 77.4999 136.3C77.4999 136.3 76.4999 131.6 78.7999 128.7C78.7999 128.7 75.8 125.1 79.4 124.9ZM82.9 53.8C82.4 55.1 81.9 56.4 81.4 57.7H84.1999C83.6999 56.4 83.2999 55.1 82.7999 53.8H82.9ZM99.9 80.3C98.8 82.9 97.8999 85.5001 96.9999 88.1001H102.7C101.8 85.4001 100.9 82.9 99.9 80.3ZM99.9 80.3C98.8 82.9 97.8999 85.5001 96.9999 88.1001H102.7C101.8 85.4001 100.9 82.9 99.9 80.3ZM82.9 53.8C82.4 55.1 81.9 56.4 81.4 57.7H84.1999C83.6999 56.4 83.2999 55.1 82.7999 53.8H82.9ZM79.4 124.9L79.6999 124.1C79.6999 124.1 77.3 119.9 72.9 123.7C72.9 123.7 68.8999 128.4 73.9999 133.9C73.9999 133.9 75.5999 135.8 77.4999 136.3C77.4999 136.3 76.4999 131.6 78.7999 128.7C78.7999 128.7 75.8 125.1 79.4 124.9ZM99.9 80.3C98.8 82.9 97.8999 85.5001 96.9999 88.1001H102.7C101.8 85.4001 100.9 82.9 99.9 80.3ZM82.9 53.8C82.4 55.1 81.9 56.4 81.4 57.7H84.1999C83.6999 56.4 83.2999 55.1 82.7999 53.8H82.9ZM79.4 124.9L79.6999 124.1C79.6999 124.1 77.3 119.9 72.9 123.7C72.9 123.7 68.8999 128.4 73.9999 133.9C73.9999 133.9 75.5999 135.8 77.4999 136.3C77.4999 136.3 76.4999 131.6 78.7999 128.7C78.7999 128.7 75.8 125.1 79.4 124.9Z"></path>
<path fill="white" d="M171.2 90.3999L93.1996 12.3999L91.9996 11.2L90.7996 12.3999L12.7996 90.3999L11.5996 91.6L12.7996 92.7999L90.7996 170.8L91.9996 172L93.1996 170.8L171.2 92.7999L172.4 91.6L171.2 90.3999ZM91.8997 167.8L15.5996 91.5C16.5996 90.5 40.6996 66.4 61.5996 45.5C61.8996 45.2 62.1996 44.9 62.4996 44.6C62.7996 44.3 63.0997 44 63.3997 43.8C63.6997 43.5 63.9996 43.1999 64.1996 42.8999C64.4996 42.5999 64.7996 42.3 64.9996 42.1C65.2996 41.8 65.5996 41.5 65.7996 41.3C66.0996 41 66.3996 40.8 66.5996 40.5C67.3996 39.7 68.1996 38.9 69.0996 38C69.3996 37.7 69.5997 37.5 69.8997 37.2C70.1997 36.9 70.3996 36.6999 70.6996 36.3999C70.9996 36.0999 71.1996 35.9 71.4996 35.6L72.2996 34.8C72.5996 34.5 72.7996 34.3 73.0996 34C73.5996 33.5 74.0996 33 74.5996 32.5C75.7996 31.3 76.9996 30.0999 78.1996 28.8999C78.3996 28.6999 78.6997 28.4 78.8997 28.2C79.0997 28 79.3996 27.8 79.5996 27.5C79.7996 27.3 79.9996 27.1 80.2996 26.8C80.4996 26.6 80.6997 26.4 80.8997 26.2C82.1997 24.9 83.3996 23.7 84.4996 22.6C84.6996 22.4 84.8996 22.2 84.9996 22.1C85.1996 21.9 85.3996 21.7 85.4996 21.6C85.6996 21.4 85.7996 21.3 85.9996 21.1L86.4996 20.6C86.6996 20.4 86.7996 20.3 86.9996 20.1C87.1996 20 87.2996 19.8 87.4996 19.7C87.6996 19.5 87.7997 19.4 87.8997 19.3C87.9997 19.1 88.1996 18.9999 88.2996 18.8999C88.3996 18.7999 88.5996 18.6 88.6996 18.5C88.7996 18.4 88.9996 18.2 89.0996 18.1C89.1996 18 89.2997 17.9 89.3997 17.7L89.6996 17.3999C89.7996 17.2999 89.8996 17.2 89.9996 17.1C89.9996 17 90.1996 16.9 90.2996 16.8C90.2996 16.8 90.4996 16.6 90.5996 16.5C90.8996 16.2 91.0996 16 91.2996 15.8L91.4996 15.6H91.6996C91.6996 15.4 91.6996 15.4 91.7996 15.3C91.8996 15.2 91.9996 15.1 91.9996 15.1C93.4996 16.6 166.6 89.7 168.3 91.3999C166.6 93.0999 93.6996 166 91.9996 167.7L91.8997 167.8Z"></path>
<path fill="#59200A" d="M91.8997 15.3C74.3997 32.8 21.2996 85.8 15.5996 91.6001L91.8997 167.9C93.5997 166.2 166.5 93.3 168.2 91.6001C166.5 89.9001 93.3997 16.8 91.8997 15.3ZM60.9996 96.5C60.1996 96.5 59.2997 96.5001 58.3997 96.7001C58.1997 92.2001 57.6996 86.6 57.1996 81.5C54.8996 86.6 52.5996 91.6001 50.2996 96.7001C49.8996 96.7001 49.4996 96.7001 49.0996 96.7001C46.8996 91.8001 44.5996 86.8 42.2996 81.8C41.5996 86.8 41.3996 91.7001 41.0996 96.7001C40.0996 96.5001 39.1996 96.5001 38.1996 96.7001C39.4996 89.2001 40.4997 81.6001 41.3997 74.1001C42.1997 74.3001 43.0997 74.3001 43.8997 74.1001C46.1997 79.3 48.7996 85.1 51.0996 89.8C53.5996 84.9 56.0997 79.3 58.3997 74.1001C59.2997 74.3001 60.0996 74.3001 60.9996 74.1001C61.7996 81.6001 62.8996 92.1001 63.6996 96.7001C62.7996 96.7001 61.9996 96.5 61.1996 96.5H60.9996ZM110 47C111.6 47.8 110.9 48.1001 107.9 50.1001H107.1C109.4 47.1001 109.6 47 110 47ZM105.2 50.7C106.8 50.7 110.2 50.8 111.2 50.7C111.2 51.1 111.2 51.7001 111.2 52.1001C110 52.1001 108.2 51.9 107.7 51.9C107.7 53.1 107.7 54.3 107.7 55.5C109 55.5 110 55.5 111.2 55.4C111.1 56.1 111.1 56.1 111.2 56.8C110 56.8 108.9 56.7 107.7 56.7C107.7 57.9 107.7 59.7001 107.7 60.8C108.9 60.8 110.1 60.8001 111.3 60.6001C111.3 60.9001 111.3 61.7 111.3 62C110.7 62 105.1 62 105.3 62C105.5 58.7 105.5 54 105.3 50.7H105.2ZM110.9 96.8C109 96.6 107.4 96.6 105.5 96.8C104.8 94.6 104.1 92.3 103.4 90.1001C101 90.1001 98.5996 90.1001 96.1996 90.1001C95.3996 92.3 94.6996 94.6 94.0996 96.8C92.9996 96.6 92.1996 96.6 91.0996 96.8C92.5996 93.2 97.2996 81.5 99.9996 74C100.8 74.2 101.6 74.2 102.4 74C105 81.5 108.7 91.4 111 96.8H110.9ZM100.2 50.8C101.7 50.8 103 50.8 103.4 50.8C103.4 51.2001 103.4 51.8 103.4 52.2C102.2 52.2 100.4 52 99.8997 52C99.8997 53.2 99.8997 54.4001 99.8997 55.6001C101.3 55.6001 102.2 55.6 103.4 55.5C103.4 56.2 103.4 56.2 103.4 56.9C102.2 56.9 101.1 56.8 99.8997 56.8C99.8997 58.7001 99.8996 60.6001 99.9996 62.1001C99.3996 62.1001 98.0996 62.1001 97.4996 62.1001C97.6996 58.8001 97.6996 54.1 97.4996 50.8C98.3996 50.8 99.2996 50.8 100.3 50.8H100.2ZM89.6996 50.7C91.2996 50.7 94.6996 50.8 95.6996 50.7C95.6996 51.1 95.6996 51.7001 95.6996 52.1001C94.4996 52.1001 92.6996 51.9 92.1996 51.9C92.1996 53.1 92.1996 54.3 92.1996 55.5C93.4996 55.5 94.4996 55.5 95.6996 55.4C95.5996 56.1 95.5996 56.1 95.6996 56.8C94.4996 56.8 93.3996 56.7 92.1996 56.7C92.1996 58.6 92.1996 60.5 92.2996 62C91.5996 62 90.3996 62 89.6996 62C89.8996 58.7 89.8996 54 89.6996 50.7ZM82.8997 50.6001C83.2997 50.7001 83.6996 50.7001 84.0996 50.6001C85.3996 54.3001 87.1997 59.3 88.3997 61.9C87.3997 61.9 86.5996 61.9 85.6996 61.9C85.3996 60.8 84.9996 59.7001 84.5996 58.6001C83.3996 58.6001 82.1996 58.6001 80.9996 58.6001C80.5996 59.7001 80.1997 60.8 79.8997 61.9C79.3997 61.8 78.8997 61.9 78.3997 61.9C79.1997 60.1 81.4996 54.3001 82.7996 50.6001H82.8997ZM80.0996 74.2001C81.0996 74.2001 81.9996 74.1 82.5996 74C82.1996 79.7 82.3997 88.3001 82.3997 94.2001C84.6997 94.2001 87.0996 94.1 89.4996 93.8C89.2996 94.5 89.2996 96.0001 89.4996 96.7001C88.2996 96.5001 77.0997 96.5001 77.3997 96.7001C77.7997 90.1001 77.7997 80.7001 77.3997 74.1001C78.0997 74.1001 78.8996 74.3 79.9996 74.3L80.0996 74.2001ZM74.8997 50.5C75.9997 50.5 77.2996 50.8 78.0996 51.3C77.8996 51.8 77.7996 52.4 77.6996 53H77.4996C69.6996 46 69.0996 66.6 77.7996 60H77.9996C77.7996 60.6 77.6996 61.1 77.6996 61.5C67.9996 66.2 65.2996 50.2 74.9996 50.5H74.8997ZM67.2996 74.1001C68.5996 74.3001 71.0997 74.3001 72.3997 74.1001C71.9997 80.7001 71.9997 90.1001 72.3997 96.7001C71.0997 96.5001 68.5996 96.5001 67.2996 96.7001C67.6996 90.1001 67.6996 80.7001 67.2996 74.1001ZM111.1 124.2C113.3 134.5 109 142.2 103.6 142.4C102.1 141.9 100.8 143.2 100.8 143.2C96.4996 147.2 102.1 146.9 100.4 148.9C94.2997 156.1 85.5996 151.4 85.5996 151.4C81.3996 149.1 83.7996 147.1 83.7996 147.1C86.0996 146.2 84.6996 145.6 84.6996 145.6C83.4996 142.4 79.7996 140.7 79.7996 140.7C78.6996 143 77.1996 142 77.1996 142C75.5996 140.1 77.5996 139.7 77.5996 139.7C78.8996 138.7 76.7996 137.8 76.7996 137.8C68.6996 133.6 69.0996 128.7 69.0996 128.7C68.1996 116.2 81.9996 118.5 82.7996 124.8C93.3996 120.3 76.9997 121.9 83.3997 117.8C81.0997 114.3 91.6997 115.8 88.8997 113.1C82.5997 111.1 89.7996 109.5 89.7996 109.5C87.7996 104.7 95.0996 105.2 92.9996 109.4C93.2996 109.8 94.7996 110.3 94.9996 110.3C98.1996 111.7 94.5996 112.7 94.5996 112.7C91.4996 114.6 94.9996 115 94.9996 115C100.6 115.2 99.6996 117.9 99.6996 117.9C102.6 120.1 98.3997 121 98.3997 121C95.1997 122.6 98.2996 123.5 98.2996 123.5C103.2 124.9 105 128.8 105 128.8C110.7 126.8 104.3 119.4 112.7 116.1L114.2 117C109.8 121.3 111.2 124.4 111.2 124.4L111.1 124.2ZM132.6 96.7001C131.8 96.5001 130.9 96.5001 130.1 96.7001C125.8 91.4001 121.3 86.1 116.5 80.8C116.4 84.7 116.5 94.9001 116.6 96.7001C115.6 96.5001 114.7 96.5001 113.7 96.7001C114 95.4001 114.6 79.1001 114.2 74.1001C115.1 74.3001 116.1 74.3001 117 74.1001C121.5 79.3 125.9 84.5001 130.5 89.7001C130.5 84.5001 130.5 75.6001 130.3 74.1001C131.2 74.3001 132.2 74.3001 133.1 74.1001C132.6 83.6001 132.6 88.0001 132.6 96.7001ZM141.2 96.8C140.2 96.8 139.3 96.8 138.6 97C139 90.4 139 81 138.6 74.4C139.8 74.6 142.4 74.6 143.7 74.4C143.3 81 143.3 90.4 143.7 97C143 97 142.2 96.8 141.2 96.8Z"></path>
</svg>
