<svg xmlns="http://www.w3.org/2000/svg" fill="none" viewBox="0 0 99 103" height="103" width="99">
<path fill="#503629" d="M92.1115 34.6481C92.7115 30.3481 95.9115 26.3481 98.7115 23.2481C96.1115 20.4481 93.5115 22.3481 91.0115 24.3481C88.7115 26.1481 86.3115 29.3481 85.5115 32.2481C84.1115 37.2481 86.9115 46.9481 80.0115 49.0481C78.1115 49.6481 78.8115 48.8481 78.0115 47.8481C75.2115 44.0481 71.9115 40.9481 67.5115 38.9481C65.6115 38.0481 59.1115 37.0481 61.8115 33.7481C63.5115 31.5481 68.2115 31.5481 69.2115 29.4481C70.1115 27.4481 67.9115 26.6481 67.4115 25.5481C67.1115 24.7481 67.4115 23.9481 66.8115 22.9481C64.6115 18.4481 54.4115 20.1481 53.2115 17.7481C51.6115 14.4481 60.1115 13.3481 59.7115 11.2481C59.2115 8.84811 53.3115 8.64812 52.5115 7.14812C52.0115 6.24812 53.9115 3.14811 52.5115 1.24811C51.5115 -0.151886 48.6115 -0.25188 47.1115 0.34812C42.6115 2.14812 45.8115 6.64812 45.4115 7.14812C44.5115 8.24812 32.8115 9.74811 40.5115 13.7481C42.0115 14.5481 45.7115 14.9481 44.3115 17.6481C43.7115 18.7481 37.7115 19.4481 36.0115 19.9481C34.6115 20.3481 31.1115 21.7481 30.8115 23.2481C30.6115 24.0481 31.8115 25.2481 31.4115 25.7481C31.1115 26.0481 28.8115 26.4481 28.4115 28.5481C27.5115 33.1481 42.8115 31.4481 36.9115 37.0481C36.0115 37.9481 31.4115 40.9481 30.2115 40.5481C29.8115 40.4481 27.3115 35.0481 26.1115 33.6481C19.0115 25.9481 4.1115 29.3481 1.0115 39.6481C-1.9885 49.6481 1.91151 58.1481 9.71151 64.2481C11.3115 65.5481 19.2115 69.8481 19.6115 70.6481C20.9115 73.7481 17.1115 73.3481 16.7115 75.1481C16.4115 76.1481 17.7115 78.2481 19.0115 78.4481C22.4115 78.8481 22.1115 76.2481 23.4115 75.4481C24.0115 75.0481 27.9115 77.7481 28.7115 78.3481C31.6115 80.6481 33.2115 83.5481 35.3115 86.6481C36.4115 89.1481 31.8115 89.0481 31.4115 91.9481C30.6115 97.5481 41.4115 101.048 45.6115 101.748C53.9115 103.048 63.9115 100.248 69.0115 93.1481C71.0115 90.2481 67.9115 90.1481 66.9115 88.9481C64.5115 85.9481 69.2115 80.3481 72.1115 79.3481C74.2115 78.5481 75.9115 79.3481 78.2115 78.7481C92.9115 75.2481 94.3115 56.9481 93.4115 44.5481C93.1115 40.9481 91.5115 38.6481 92.1115 34.7481V34.6481ZM23.4115 40.9481C22.7115 41.5481 20.0115 41.1481 19.6115 43.3481C19.2115 45.6481 22.1115 48.2481 22.1115 49.3481C22.1115 49.7481 20.5115 52.2481 20.2115 53.0481C19.6115 54.6481 19.1115 57.4481 18.9115 59.2481C18.8115 61.5481 19.3115 63.8481 19.1115 66.1481C9.91153 62.1481 2.71153 51.5481 7.11153 41.4481C9.61153 35.5481 17.3115 32.3481 22.4115 37.0481C23.5115 38.0481 24.9115 39.7481 23.4115 40.9481Z"></path>
</svg>
